<?xml version="1.0" standalone="no"?><!DOCTYPE svg PUBLIC "-//W3C//DTD SVG 1.1//EN" "http://www.w3.org/Graphics/SVG/1.1/DTD/svg11.dtd"><svg t="1635408444358" class="icon" viewBox="0 0 1024 1024" version="1.1" xmlns="http://www.w3.org/2000/svg" p-id="5335" xmlns:xlink="http://www.w3.org/1999/xlink" width="200" height="200"><defs><style type="text/css"></style></defs><path d="M954.432 354.624a34.688 34.688 0 0 0-6.4-44.992c-14.4-11.264-33.664-8.064-44.864 6.4-1.6 1.6-179.456 212.224-390.976 212.224-205.12 0-390.976-212.224-392.576-213.824a32.448 32.448 0 0 0-44.864-3.2 32.704 32.704 0 0 0-3.2 44.992c3.136 4.864 41.6 48.256 102.528 96.448L92.352 537.92a31.168 31.168 0 0 0 1.6 44.992c3.2 6.4 11.2 9.664 19.2 9.664a31.36 31.36 0 0 0 22.4-9.664l88.128-91.648a623.168 623.168 0 0 0 145.792 75.52l-33.6 114.176a32.128 32.128 0 0 0 22.464 40.192h9.6a30.976 30.976 0 0 0 30.464-24.128l33.6-114.112c25.664 4.8 52.864 8.064 80.128 8.064 27.264 0 54.464-3.2 80.128-8.064l33.664 112.512c3.2 14.464 17.6 24.128 30.464 24.128 3.2 0 6.4 0 8-1.6a32.192 32.192 0 0 0 22.464-40.192l-33.664-112.512a620.864 620.864 0 0 0 145.792-75.584l86.528 90.048c6.4 6.4 14.4 9.664 22.464 9.664a31.36 31.36 0 0 0 22.4-9.664 32.64 32.64 0 0 0 1.6-44.992l-81.728-85.184c65.728-48.256 104.192-94.912 104.192-94.912z" p-id="5336"></path></svg>