<?xml version="1.0" standalone="no"?><!DOCTYPE svg PUBLIC "-//W3C//DTD SVG 1.1//EN" "http://www.w3.org/Graphics/SVG/1.1/DTD/svg11.dtd"><svg t="1635408491898" class="icon" viewBox="0 0 1024 1024" version="1.1" xmlns="http://www.w3.org/2000/svg" p-id="5927" xmlns:xlink="http://www.w3.org/1999/xlink" width="200" height="200"><defs><style type="text/css"></style></defs><path d="M858.9 438.1l119.2-142-38.3-32.1-119 141.8c-32.4-25.6-69-49.6-108.9-69.3l61.4-168.6-47-17.1L666 316.3c-40.7-15.5-84-26-129-28.9v-170h-50v170c-45.2 2.8-88.7 12.8-129.5 27.8l-59.8-164.4-47 17.1 60.7 166.8c-40.5 19.3-77.6 43.1-110.4 68.5L84.2 264l-38.3 32.1 116.8 139.2C93.7 498.1 52 564.1 52 596.6c0 72.3 205.9 310 460 310s460-250.1 460-310c0-27.3-42.7-93.9-113.1-158.5z m62.5 158.5c-2.5 7.4-11.2 25.4-32.7 53.2-24.4 31.5-57 64.5-91.7 92.7-42 34.1-86.2 61.3-131.4 80.6-51.8 22.2-103.5 33.5-153.6 33.5-51.4 0-104.1-11.1-156.6-33.1-46.1-19.3-90.7-46.1-132.5-79.8-35.2-28.4-67.3-61.2-90.5-92.4-22.6-30.4-29.4-49.1-30.3-54.7 0.9-5.6 7.7-24.3 30.3-54.7 23.2-31.2 55.4-64 90.5-92.4 41.8-33.7 86.4-60.6 132.5-79.8 52.5-21.9 105.2-33.1 156.6-33.1 50.2 0 101.9 11.3 153.6 33.5 45.2 19.4 89.4 46.5 131.4 80.6 34.8 28.3 67.3 61.2 91.7 92.7 21.5 27.8 30.2 45.9 32.7 53.2zM626 510v-93.4c-32.8-21.3-72-33.6-114-33.6-116 0-210 94-210 210s94 210 210 210 210-94 210-210c0-29.5-6.1-57.5-17.1-83H626z m-0.9 196.1C594.9 736.4 554.7 753 512 753s-82.9-16.6-113.1-46.9C368.6 675.9 352 635.7 352 593s16.6-82.9 46.9-113.1C429.1 449.7 469.3 433 512 433c22.2 0 43.9 4.6 64 13.3V560h92.6c2.3 10.8 3.4 21.8 3.4 33 0 42.7-16.6 82.9-46.9 113.1z" fill="" p-id="5928"></path></svg>