<?xml version="1.0" standalone="no"?><!DOCTYPE svg PUBLIC "-//W3C//DTD SVG 1.1//EN" "http://www.w3.org/Graphics/SVG/1.1/DTD/svg11.dtd"><svg t="1635408410466" class="icon" viewBox="0 0 1024 1024" version="1.1" xmlns="http://www.w3.org/2000/svg" p-id="2437" xmlns:xlink="http://www.w3.org/1999/xlink" width="200" height="200"><defs><style type="text/css"></style></defs><path d="M838.978053 447.840748 182.846398 447.840748c-39.531342 0-71.578222 32.04688-71.578222 71.578222l0 432.174953c0 39.531342 32.04688 71.578222 71.578222 71.578222l656.130631 0c39.531342 0 71.578222-32.04688 71.578222-71.578222L910.555252 519.41897C910.555252 479.887628 878.509395 447.840748 838.978053 447.840748zM881.548614 922.586263c0 39.531342-32.04688 71.578222-71.578222 71.578222L211.853036 994.164484c-39.531342 0-71.578222-32.04688-71.578222-71.578222L140.274814 548.426631c0-39.531342 32.04688-71.578222 71.578222-71.578222L809.971415 476.848409c39.531342 0 71.578222 32.04688 71.578222 71.578222L881.549637 922.586263z" p-id="2438"></path><path d="M212.377992 319.928496l29.006637 0 0 127.913275-29.006637 0 0-127.913275Z" p-id="2439"></path><path d="M510.912226 50.399877c148.856259 0 269.52862 120.67236 269.52862 269.52862l29.006637 0c0-164.876118-133.658116-298.534234-298.534234-298.534234S212.377992 155.052378 212.377992 319.928496l29.006637 0C241.383606 171.072237 362.055966 50.399877 510.912226 50.399877z" p-id="2440"></path></svg>