<?xml version="1.0" standalone="no"?><!DOCTYPE svg PUBLIC "-//W3C//DTD SVG 1.1//EN" "http://www.w3.org/Graphics/SVG/1.1/DTD/svg11.dtd"><svg t="1635408962952" class="icon" viewBox="0 0 1024 1024" version="1.1" xmlns="http://www.w3.org/2000/svg" p-id="6912" xmlns:xlink="http://www.w3.org/1999/xlink" width="200" height="200"><defs><style type="text/css"></style></defs><path d="M920.8 409.6H166.4c-22.4 0-40 17.6-40 40v520.8c0 22.4 17.6 40 40 40h754.4c22.4 0 40-17.6 40-40V449.6c0-22.4-18.4-40-40-40zM604 715.2v75.2c0 33.6-27.2 60.8-60.8 60.8-33.6 0-60.8-27.2-60.8-60.8v-75.2c-15.2-15.2-24.8-36.8-24.8-60.8C457.6 606.4 496 568 544 568c48 0 86.4 38.4 86.4 86.4-0.8 24-10.4 45.6-26.4 60.8z" fill="#666666" p-id="6913"></path><path d="M350.4 466.4h-64v-192C286.4 127.2 406.4 7.2 553.6 7.2s267.2 120 267.2 267.2v43.2h-64v-43.2c0-112-91.2-203.2-203.2-203.2-112 0-203.2 91.2-203.2 203.2v192z" fill="#666666" p-id="6914"></path><path d="M756 318.4a32 32 0 1 0 64 0 32 32 0 1 0-64 0Z" fill="#666666" p-id="6915"></path></svg>